<svg width="235" height="235" viewBox="0 0 235 235" fill="none" xmlns="http://www.w3.org/2000/svg">
<rect width="235" height="235" rx="117.5" fill="#E8E8E8"/>
<path d="M77.0272 181.555L66.6867 163.642C66.3656 162.978 66.3656 162.203 66.6867 161.539L78.1755 141.638C78.5837 141.013 79.2644 140.619 80.0096 140.576H102.976C103.723 140.62 104.405 141.013 104.816 141.638L116.299 161.539C116.632 162.208 116.632 162.994 116.299 163.663L104.783 183.554C104.372 184.161 103.707 184.55 102.976 184.61H82.3443C80.1945 184.471 78.2306 183.343 77.0272 181.555ZM151.587 140.593L128.73 100.943C128.165 100.095 127.237 99.5593 126.221 99.4943H80.4504C79.4341 99.5593 78.5063 100.095 77.9415 100.943L55.0564 140.614C54.6051 141.527 54.6051 142.599 55.0564 143.512L61.7886 155.145L73.5223 134.819C74.165 133.838 75.2315 133.217 76.4013 133.142H106.552C107.73 133.208 108.807 133.831 109.453 134.819L124.533 160.962C125.067 162.017 125.067 163.262 124.533 164.317L112.8 184.643H126.204C127.223 184.582 128.154 184.043 128.713 183.189L151.587 143.523C152.05 142.601 152.05 141.515 151.587 140.593ZM193.113 114.357L158.037 53.4888C156.824 51.637 154.803 50.474 152.594 50.3571H82.3879C80.1789 50.474 78.1577 51.637 76.9455 53.4888L41.8532 114.357C40.8574 116.322 40.8574 118.645 41.8532 120.61L49.9025 134.558L73.2175 94.1078C74.017 92.8873 75.348 92.1192 76.804 92.0382H129.818C131.273 92.1192 132.602 92.8875 133.399 94.1078L159.898 140.037C160.556 141.338 160.556 142.875 159.898 144.176L136.561 184.61H152.616C154.825 184.493 156.846 183.33 158.058 181.478L193.151 120.615C194.141 118.649 194.141 116.329 193.151 114.363L193.113 114.357Z" fill="#2F2F2F"/>
</svg>
