<svg width="88" height="88" viewBox="0 0 88 88" fill="none" xmlns="http://www.w3.org/2000/svg">
<g clip-path="url(#clip0_1279_2838)">
<path d="M32.7888 2.1528C55.9005 -4.03839 79.6546 9.67749 85.8466 32.7893C92.0386 55.901 78.3219 79.6551 55.2102 85.8471C32.0992 92.0383 8.34433 78.3224 2.15231 55.2106C-4.03888 32.0997 9.677 8.34482 32.7888 2.1528Z" fill="url(#paint0_linear_1279_2838)"/>
<path d="M45.5876 77.7917V62.7722H71.6021L45.5876 77.7917ZM16.3917 62.7722H42.436V77.8091L16.3917 62.7722ZM28.8529 30.4089L16.0357 25.4242L39.8769 11.6594L28.8529 30.4089ZM58.7782 30.4894L47.4954 11.3009L71.9473 25.4192L58.7782 30.4902V30.4894ZM58.2239 35.7644L72.2502 59.6206H46.5378L58.2239 35.7644ZM41.4701 59.6206H15.3321L29.5002 35.5238L41.4685 59.6206H41.4701ZM32.2419 30.8644L43.7919 11.2196L55.342 30.8644H32.241H32.2419ZM44.0027 57.634L32.2726 34.016H55.571L44.0027 57.634ZM74.0616 28.1335V56.4797L60.3989 33.2435L74.0566 27.9842C74.0591 28.034 74.0616 28.0837 74.0616 28.1335ZM13.9355 28.1335C13.9355 28.0854 13.938 28.0381 13.9405 27.99L27.2373 33.1613L13.9355 55.7835V28.1335ZM11.1249 61.7971C11.5788 63.0559 12.4651 64.1422 13.655 64.8301L41.1291 80.6918C42.0145 81.203 43.0069 81.4586 43.9994 81.4586C44.9918 81.4586 45.9843 81.203 46.8697 80.6918L74.3438 64.8301C76.1146 63.8078 77.2141 61.9025 77.2141 59.8579V28.1344C77.2141 27.073 76.917 26.0491 76.3843 25.167C76.3577 25.1188 76.3287 25.0724 76.298 25.0284C75.8109 24.2716 75.147 23.626 74.3446 23.163L46.868 7.30041C45.9245 6.75523 44.8591 6.50131 43.8019 6.53699C43.7986 6.53699 43.7961 6.53699 43.7928 6.53699C43.7422 6.53699 43.6924 6.54031 43.6426 6.54529C42.7696 6.59922 41.9066 6.85066 41.1274 7.30041L13.6525 23.1622C12.8501 23.6252 12.1863 24.2708 11.6992 25.0276C11.6676 25.0732 11.6378 25.1205 11.6104 25.1703C11.0785 26.0516 10.7822 27.0739 10.7822 28.1344V59.8579C10.7822 60.4645 10.8793 61.0586 11.0619 61.6212C11.0785 61.681 11.0984 61.7399 11.1224 61.7971" fill="white"/>
</g>
<defs>
<linearGradient id="paint0_linear_1279_2838" x1="22.3367" y1="81.5189" x2="65.6593" y2="6.48204" gradientUnits="userSpaceOnUse">
<stop stop-color="#56BEF0"/>
<stop offset="0.33" stop-color="#5A9CFA"/>
<stop offset="0.67" stop-color="#6D5AFA"/>
<stop offset="1" stop-color="#9256F0"/>
</linearGradient>
<clipPath id="clip0_1279_2838">
<rect width="86.6667" height="86.6667" fill="white" transform="translate(0.666992 0.666748)"/>
</clipPath>
</defs>
</svg>
