<svg width="80" height="80" viewBox="0 0 80 80" fill="none" xmlns="http://www.w3.org/2000/svg">
<path d="M75.4319 21.4189C70.7658 27.1143 61.2278 35.927 46.3669 37.1229C31.4667 38.3286 13.4787 45.514 2.5291 54.013C0.892047 49.6508 0 44.9259 0 39.9951C0 35.976 0.597966 32.1039 1.69587 28.4377C6.66585 26.8692 11.7143 26.1536 17.1548 25.3792C22.8109 24.5754 29.1533 23.6834 36.1328 21.6542C36.8974 21.4287 37.6719 21.1935 38.4561 20.9484C48.7979 17.6253 56.9342 11.9593 62.5904 6.96973C67.9623 10.6654 72.3833 15.6255 75.4319 21.4189Z" fill="url(#paint0_linear_1279_2821)"/>
<path d="M62.5908 6.97954C56.9346 11.9593 48.8082 17.6351 38.4565 20.9582C37.6723 21.2131 36.8979 21.4484 36.1332 21.664C29.1439 23.6834 22.8113 24.5852 17.1552 25.389C11.7147 26.1537 6.66627 26.8693 1.69629 28.4475C1.78451 28.1632 1.87274 27.8789 1.96096 27.6045C7.17601 11.577 22.233 0 39.9955 0C47.9749 0 55.4152 2.34285 61.6595 6.37177C61.9732 6.56782 62.2869 6.77368 62.5908 6.97954Z" fill="url(#paint1_linear_1279_2821)"/>
<path d="M80.0002 39.9951C80.0002 44.1024 79.3827 48.0725 78.2259 51.8074C74.893 53.0425 69.8446 51.9054 66.5411 50.8467C64.5315 50.2095 62.2573 49.4841 59.2479 49.0038C47.0631 47.1119 40.9952 51.9348 35.1136 56.6107C32.0257 59.0712 29.1045 61.3944 25.2324 62.8648C21.0761 64.4431 14.3808 65.0214 8.95012 65.2175C6.23476 61.8846 4.04876 58.1105 2.51953 54.0032C13.4692 45.5042 31.4572 38.3188 46.3573 37.1131C61.228 35.927 70.7661 27.1143 75.4322 21.4189C78.3534 26.9673 80.0002 33.29 80.0002 39.9951Z" fill="url(#paint2_linear_1279_2821)"/>
<path d="M80.0002 39.9951C80.0002 44.1024 79.3827 48.0725 78.2259 51.8074C74.893 53.0425 69.8446 51.9054 66.5411 50.8467C64.5315 50.2095 62.2573 49.4841 59.2479 49.0038C47.0631 47.1119 40.9952 51.9348 35.1136 56.6107C32.0257 59.0712 29.1045 61.3944 25.2324 62.8648C21.0761 64.4431 14.3808 65.0214 8.95012 65.2175C6.23476 61.8846 4.04876 58.1105 2.51953 54.0032C13.4692 45.5042 31.4572 38.3188 46.3573 37.1131C61.228 35.927 70.7661 27.1143 75.4322 21.4189C78.3534 26.9673 80.0002 33.29 80.0002 39.9951Z" fill="url(#paint3_linear_1279_2821)"/>
<path d="M76.6862 55.9734C70.5203 70.1187 56.4142 79.9999 40.0044 79.9999C29.4861 79.9999 19.9186 75.9317 12.7725 69.2953C15.6937 69.0992 18.3208 68.8052 20.595 68.4228C23.0065 68.0111 25.0455 67.4916 26.6727 66.874C31.1134 65.188 34.4071 62.5608 37.5929 60.0317C43.2883 55.5029 48.2093 51.5818 58.7472 53.2188C61.4626 53.6403 63.4917 54.2873 65.4621 54.9147C68.9126 56.0224 71.9613 56.9929 76.6862 55.9734Z" fill="url(#paint4_linear_1279_2821)"/>
<path d="M76.6862 55.9734C70.5203 70.1187 56.4142 79.9999 40.0044 79.9999C29.4861 79.9999 19.9186 75.9317 12.7725 69.2953C15.6937 69.0992 18.3208 68.8052 20.595 68.4228C23.0065 68.0111 25.0455 67.4916 26.6727 66.874C31.1134 65.188 34.4071 62.5608 37.5929 60.0317C43.2883 55.5029 48.2093 51.5818 58.7472 53.2188C61.4626 53.6403 63.4917 54.2873 65.4621 54.9147C68.9126 56.0224 71.9613 56.9929 76.6862 55.9734Z" fill="url(#paint5_linear_1279_2821)"/>
<path d="M76.6862 55.9734C70.5203 70.1187 56.4142 79.9999 40.0044 79.9999C29.4861 79.9999 19.9186 75.9317 12.7725 69.2953C15.6937 69.0992 18.3208 68.8052 20.595 68.4228C23.0065 68.0111 25.0455 67.4916 26.6727 66.874C31.1134 65.188 34.4071 62.5608 37.5929 60.0317C43.2883 55.5029 48.2093 51.5818 58.7472 53.2188C61.4626 53.6403 63.4917 54.2873 65.4621 54.9147C68.9126 56.0224 71.9613 56.9929 76.6862 55.9734Z" fill="url(#paint6_linear_1279_2821)"/>
<defs>
<linearGradient id="paint0_linear_1279_2821" x1="3771.35" y1="-925.073" x2="3771.35" y2="11174.9" gradientUnits="userSpaceOnUse">
<stop offset="0.24" stop-color="#ABF3FF"/>
<stop offset="0.34" stop-color="#98E0F8"/>
<stop offset="0.54" stop-color="#68AEE7"/>
<stop offset="0.83" stop-color="#1C60CC"/>
<stop offset="0.87" stop-color="#1255C9"/>
</linearGradient>
<linearGradient id="paint1_linear_1279_2821" x1="2944.68" y1="1121.71" x2="2978.71" y2="1700.04" gradientUnits="userSpaceOnUse">
<stop offset="0.1" stop-color="#FFA140"/>
<stop offset="1" stop-color="#F9C185"/>
</linearGradient>
<linearGradient id="paint2_linear_1279_2821" x1="3877" y1="-3122.22" x2="3877" y2="9315.97" gradientUnits="userSpaceOnUse">
<stop offset="0.24" stop-color="#ABF3FF"/>
<stop offset="0.34" stop-color="#98E0F8"/>
<stop offset="0.54" stop-color="#68AEE7"/>
<stop offset="0.83" stop-color="#1C60CC"/>
<stop offset="0.87" stop-color="#1255C9"/>
</linearGradient>
<linearGradient id="paint3_linear_1279_2821" x1="3877" y1="-691.435" x2="3877" y2="6234.87" gradientUnits="userSpaceOnUse">
<stop offset="0.29" stop-color="#2EBFF3"/>
<stop offset="0.4" stop-color="#2EB0E9"/>
<stop offset="0.6" stop-color="#2E8ACE"/>
<stop offset="0.88" stop-color="#2E4CA4"/>
<stop offset="1" stop-color="#2E3192"/>
</linearGradient>
<linearGradient id="paint4_linear_1279_2821" x1="3208.31" y1="-5385.53" x2="3208.31" y2="4633.24" gradientUnits="userSpaceOnUse">
<stop offset="0.24" stop-color="#ABF3FF"/>
<stop offset="0.34" stop-color="#98E0F8"/>
<stop offset="0.54" stop-color="#68AEE7"/>
<stop offset="0.83" stop-color="#1C60CC"/>
<stop offset="0.87" stop-color="#1255C9"/>
</linearGradient>
<linearGradient id="paint5_linear_1279_2821" x1="3208.31" y1="-3151.98" x2="3208.31" y2="2081.99" gradientUnits="userSpaceOnUse">
<stop offset="0.29" stop-color="#2EBFF3"/>
<stop offset="0.4" stop-color="#2EB0E9"/>
<stop offset="0.6" stop-color="#2E8ACE"/>
<stop offset="0.88" stop-color="#2E4CA4"/>
<stop offset="1" stop-color="#2E3192"/>
</linearGradient>
<linearGradient id="paint6_linear_1279_2821" x1="3208.31" y1="-1247.01" x2="3208.31" y2="3016.58" gradientUnits="userSpaceOnUse">
<stop offset="0.04" stop-color="#2EBFF3"/>
<stop offset="0.21" stop-color="#2EA4E0"/>
<stop offset="0.75" stop-color="#2E51A8"/>
<stop offset="1" stop-color="#2E3192"/>
</linearGradient>
</defs>
</svg>
