<svg width="25" height="24" viewBox="0 0 25 24" fill="none" xmlns="http://www.w3.org/2000/svg">
<g clip-path="url(#clip0_1277_2418)">
<path d="M12.333 2C6.80801 2 2.33301 6.475 2.33301 12C2.33188 14.0993 2.99182 16.1456 4.21922 17.8487C5.44663 19.5517 7.17915 20.8251 9.17101 21.488C9.67101 21.575 9.85801 21.275 9.85801 21.012C9.85801 20.775 9.84501 19.988 9.84501 19.15C7.33301 19.613 6.68301 18.538 6.48301 17.975C6.37001 17.687 5.88301 16.8 5.45801 16.562C5.10801 16.375 4.60801 15.912 5.44501 15.9C6.23301 15.887 6.79501 16.625 6.98301 16.925C7.88301 18.437 9.32101 18.012 9.89501 17.75C9.98301 17.1 10.245 16.663 10.533 16.413C8.30801 16.163 5.98301 15.3 5.98301 11.475C5.98301 10.387 6.37001 9.488 7.00801 8.787C6.90801 8.537 6.55801 7.512 7.10801 6.137C7.10801 6.137 7.94501 5.875 9.85801 7.163C10.6721 6.93706 11.5132 6.82334 12.358 6.825C13.208 6.825 14.058 6.937 14.858 7.162C16.77 5.862 17.608 6.138 17.608 6.138C18.158 7.513 17.808 8.538 17.708 8.788C18.345 9.488 18.733 10.375 18.733 11.475C18.733 15.313 16.396 16.163 14.171 16.413C14.533 16.725 14.846 17.325 14.846 18.263C14.846 19.6 14.833 20.675 14.833 21.013C14.833 21.275 15.021 21.587 15.521 21.487C17.506 20.8168 19.2309 19.541 20.4529 17.8392C21.6749 16.1373 22.3324 14.0951 22.333 12C22.333 6.475 17.858 2 12.333 2Z" fill="#BFBFBF"/>
</g>
<defs>
<clipPath id="clip0_1277_2418">
<rect width="24" height="24" fill="white" transform="translate(0.333008)"/>
</clipPath>
</defs>
</svg>
