<svg width="126" height="126" viewBox="0 0 126 126" fill="none" xmlns="http://www.w3.org/2000/svg">
<path d="M63.0007 125.667C97.6105 125.667 125.667 97.61 125.667 63.0002C125.667 28.3903 97.6105 0.333496 63.0007 0.333496C28.3908 0.333496 0.333984 28.3903 0.333984 63.0002C0.333984 97.61 28.3908 125.667 63.0007 125.667Z" fill="#FFD700"/>
<path d="M63.0013 115.64C92.0736 115.64 115.641 92.0724 115.641 63.0001C115.641 33.9278 92.0736 10.3601 63.0013 10.3601C33.9291 10.3601 10.3613 33.9278 10.3613 63.0001C10.3613 92.0724 33.9291 115.64 63.0013 115.64Z" fill="#0F00B3"/>
<path fill-rule="evenodd" clip-rule="evenodd" d="M63.5021 76.035L80.2967 39.187H95.2114V39.939C90.6158 39.6048 88.2345 42.2368 88.0674 47.835C87.8167 56.2323 88.0674 72.9017 88.0674 80.0457C88.0674 84.8083 90.5741 87.2315 95.5874 87.315V88.067H71.5234V87.315C77.3723 87.5657 80.3385 84.3488 80.4221 77.6643C80.5056 70.9799 80.5474 59.2821 80.5474 42.571L59.9927 87.1897L40.3154 43.699C40.2318 61.4963 40.1901 73.1523 40.1901 78.667C40.1901 84.1817 43.0309 87.0643 48.7127 87.315V88.067H30.4141V87.315C35.8452 87.4821 38.6443 82.1346 38.8114 71.2723C39.0621 54.979 38.9367 52.347 38.9367 46.5817C38.9367 42.7381 36.5972 40.5239 31.9181 39.939V39.187H46.9581L63.5021 76.035Z" fill="#FFD700"/>
</svg>
