<svg width="25" height="24" viewBox="0 0 25 24" fill="none" xmlns="http://www.w3.org/2000/svg">
<path d="M23.583 5.13282C22.739 5.49955 21.846 5.74116 20.9322 5.85001C21.8925 5.28769 22.6147 4.39434 22.9633 3.33751C22.0554 3.86841 21.0637 4.24092 20.0308 4.43907C19.5959 3.98322 19.0728 3.62059 18.4933 3.3732C17.9138 3.12581 17.2901 2.99884 16.66 3.00001C14.1091 3.00001 12.0447 5.03438 12.0447 7.5422C12.0429 7.89102 12.0829 8.23881 12.1638 8.57813C10.3346 8.49238 8.54341 8.02575 6.90487 7.2081C5.26634 6.39044 3.81652 5.23977 2.64816 3.8297C2.23828 4.52069 2.02151 5.30909 2.02051 6.11251C2.02051 7.68751 2.84223 9.0797 4.08301 9.89532C3.34788 9.87787 2.62782 9.68331 1.98395 9.32813V9.38438C1.98395 11.5875 3.5777 13.4203 5.68707 13.8375C5.29041 13.9433 4.88165 13.9968 4.47113 13.9969C4.17984 13.9974 3.88921 13.9691 3.60348 13.9125C4.18988 15.7172 5.8966 17.0297 7.91832 17.0672C6.27553 18.3333 4.25861 19.0175 2.18457 19.0125C1.81642 19.012 1.44862 18.99 1.08301 18.9469C3.19294 20.2942 5.64556 21.0068 8.14895 21C16.6502 21 21.2946 14.0766 21.2946 8.07188C21.2946 7.87501 21.2894 7.67813 21.28 7.48595C22.1815 6.84472 22.9614 6.04787 23.583 5.13282Z" fill="#BFBFBF"/>
</svg>
